<svg width="117.71000366210937px" height="71.84000091552734px" xmlns="http://www.w3.org/2000/svg" viewBox="191.1449981689453 39.07999954223633 117.71000366210937 71.84000091552734" style="background: rgba(0, 0, 0, 0);" preserveAspectRatio="xMidYMid"><filter id="editing-goldstamp"><feFlood flood-color="#999569" result="flood"></feFlood><feMorphology operator="dilate" radius="1" in="SourceGraphic" result="outline"></feMorphology><feComposite operator="in" in="flood" in2="outline" result="outline2"></feComposite><feGaussianBlur stdDeviation="4" in="SourceAlpha" result="blur"></feGaussianBlur><feSpecularLighting surfaceScale="2" specularConstant="0.7" specularExponent="10" lighting-color="#white" in="blur" result="specular"><fePointLight x="200" y="-1000" z="300"></fePointLight></feSpecularLighting><feComposite operator="in" in="specular" in2="SourceGraphic" result="specular2"></feComposite><feComposite in="SourceGraphic" in2="specular2" operator="arithmetic" k1="3" k2="2" k3="1" k4="0" result="specular3"></feComposite><feMerge><feMergeNode in="outline2"></feMergeNode><feMergeNode in="specular3"></feMergeNode></feMerge></filter><g filter="url(#editing-goldstamp)"><g transform="translate(213.74500274658203, 85.87000179290771)"><path d="M15.67-21.59L19.19-21.59L19.19 0L15.67 0L15.67-9.73L7.53-9.73L7.53-12.13L15.67-12.13L15.67-21.59ZM2.75 0L2.75-21.59L6.33-21.59L6.33 0L2.75 0ZM27.19-4.98L27.19-4.98L27.19-4.98Q27.19-3.66 27.73-3.02L27.73-3.02L27.73-3.02Q28.27-2.37 29.30-2.26L29.30-2.26L29.30 0.12L29.30 0.12Q29.18 0.15 28.92 0.15L28.92 0.15L28.92 0.15Q27.92 0.15 27.00-0.12L27.00-0.12L27.00-0.12Q26.07-0.38 25.37-0.97L25.37-0.97L25.37-0.97Q24.67-1.55 24.27-2.52L24.27-2.52L24.27-2.52Q23.88-3.49 23.88-4.89L23.88-4.89L23.88-4.89Q23.88-6.24 24.45-7.22L24.45-7.22L24.45-7.22Q25.02-8.20 25.91-8.83L25.91-8.83L25.91-8.83Q26.81-9.46 27.95-9.77L27.95-9.77L27.95-9.77Q29.09-10.08 30.26-10.08L30.26-10.08L31.55-10.08L31.55-8.00L30.91-8.00L30.91-8.00Q30.32-8.00 29.68-7.88L29.68-7.88L29.68-7.88Q29.03-7.76 28.48-7.44L28.48-7.44L28.48-7.44Q27.92-7.12 27.55-6.52L27.55-6.52L27.55-6.52Q27.19-5.92 27.19-4.98ZM36.30-5.13L36.30-4.89L36.30-4.89Q36.30-4.66 36.33-4.20L36.33-4.20L36.33-4.20Q36.36-3.75 36.45-3.28L36.45-3.28L36.45-3.28Q36.53-2.81 36.72-2.43L36.72-2.43L36.72-2.43Q36.91-2.05 37.24-1.93L37.24-1.93L36.30 0.03L36.30 0.03Q35.92 0.03 35.49-0.15L35.49-0.15L35.49-0.15Q35.07-0.32 34.67-0.64L34.67-0.64L34.67-0.64Q34.28-0.97 34.00-1.36L34.00-1.36L34.00-1.36Q33.72-1.76 33.57-2.23L33.57-2.23L33.57-2.23Q33.28-1.49 32.42-0.92L32.42-0.92L32.42-0.92Q31.55-0.35 30.50-0.09L30.50-0.09L30.50-2.31L30.50-2.31Q31.20-2.46 31.77-2.89L31.77-2.89L31.77-2.89Q32.34-3.31 32.75-3.90L32.75-3.90L32.75-10.08L32.75-10.08Q32.75-11.51 32.61-12.36L32.61-12.36L32.61-12.36Q32.46-13.21 32.11-13.61L32.11-13.61L32.11-13.61Q31.76-14.00 31.25-14.11L31.25-14.11L31.25-14.11Q30.73-14.21 30.03-14.21L30.03-14.21L30.03-14.21Q29.38-14.21 28.81-14.05L28.81-14.05L28.81-14.05Q28.24-13.89 27.76-13.67L27.76-13.67L27.76-13.67Q27.28-13.45 26.91-13.18L26.91-13.18L26.91-13.18Q26.54-12.92 26.37-12.77L26.37-12.77L25.05-14.79L25.05-14.79Q25.34-15.12 25.93-15.45L25.93-15.45L25.93-15.45Q26.51-15.79 27.28-16.05L27.28-16.05L27.28-16.05Q28.04-16.32 28.93-16.48L28.93-16.48L28.93-16.48Q29.82-16.64 30.79-16.64L30.79-16.64L30.79-16.64Q31.67-16.64 32.50-16.46L32.50-16.46L32.50-16.46Q33.34-16.29 34.03-15.88L34.03-15.88L34.03-15.88Q34.72-15.47 35.23-14.78L35.23-14.78L35.23-14.78Q35.74-14.09 35.95-13.07L35.95-13.07L35.95-13.07Q36.15-12.04 36.23-11.00L36.23-11.00L36.23-11.00Q36.30-9.96 36.30-8.94L36.30-8.94L36.30-5.13ZM41.89-16.52L45.06-16.52L45.44-14.82L45.44-5.86L45.44-5.80L45.44 0L41.89 0L41.89-16.52ZM46.64-12.80L46.64-15.79L46.64-15.79Q47.37-16.20 48.40-16.42L48.40-16.42L48.40-16.42Q49.42-16.64 51.18-16.64L51.18-16.64L51.18-12.95L51.18-12.95Q50.36-13.18 49.19-13.21L49.19-13.21L49.19-13.21Q48.54-13.21 47.89-13.11L47.89-13.11L47.89-13.11Q47.23-13.01 46.64-12.80L46.64-12.80ZM62.72-13.86L62.72-16.61L62.72-16.61Q64.34-16.52 65.65-15.83L65.65-15.83L65.65-15.83Q66.97-15.15 67.87-14.02L67.87-14.02L67.87-14.02Q68.76-12.89 69.26-11.40L69.26-11.40L69.26-11.40Q69.76-9.90 69.76-8.20L69.76-8.20L69.76-8.20Q69.76-6.50 69.24-5.02L69.24-5.02L69.24-5.02Q68.73-3.54 67.82-2.45L67.82-2.45L67.82-2.45Q66.91-1.35 65.60-0.67L65.60-0.67L65.60-0.67Q64.28 0 62.72 0.12L62.72 0.12L62.72-2.70L62.72-2.70Q64.19-3.02 65.11-4.54L65.11-4.54L65.11-4.54Q66.04-6.06 66.04-8.20L66.04-8.20L66.04-8.20Q66.04-9.29 65.82-10.24L65.82-10.24L65.82-10.24Q65.60-11.19 65.16-11.95L65.16-11.95L65.16-11.95Q64.72-12.71 64.10-13.21L64.10-13.21L64.10-13.21Q63.49-13.71 62.72-13.86L62.72-13.86ZM54.55-8.26L54.55-8.26L54.55-8.26Q54.55-9.96 55.05-11.43L55.05-11.43L55.05-11.43Q55.55-12.89 56.47-13.99L56.47-13.99L56.47-13.99Q57.39-15.09 58.68-15.76L58.68-15.76L58.68-15.76Q59.97-16.44 61.52-16.58L61.52-16.58L61.52-13.86L61.52-13.86Q60.06-13.54 59.18-12.01L59.18-12.01L59.18-12.01Q58.30-10.49 58.30-8.35L58.30-8.35L58.30-8.35Q58.30-7.27 58.52-6.30L58.52-6.30L58.52-6.30Q58.74-5.33 59.15-4.57L59.15-4.57L59.15-4.57Q59.56-3.81 60.16-3.31L60.16-3.31L60.16-3.31Q60.76-2.81 61.52-2.70L61.52-2.70L61.52 0.12L61.52 0.12Q59.91 0 58.62-0.69L58.62-0.69L58.62-0.69Q57.33-1.38 56.43-2.49L56.43-2.49L56.43-2.49Q55.52-3.60 55.03-5.10L55.03-5.10L55.03-5.10Q54.55-6.59 54.55-8.26Z" fill="#facc15"></path></g></g><style>text {
  font-size: 64px;
  font-family: Arial Black;
  dominant-baseline: central;
  text-anchor: middle;
}</style></svg>